<?xml version="1.0" encoding="utf-8"?>
<!-- Generator: Adobe Illustrator 24.0.3, SVG Export Plug-In . SVG Version: 6.00 Build 0)  -->
<svg version="1.1" id="Layer_1" xmlns="http://www.w3.org/2000/svg" xmlns:xlink="http://www.w3.org/1999/xlink" x="0px" y="0px"
	 viewBox="0 0 113.4 113.4" style="enable-background:new 0 0 113.4 113.4;" xml:space="preserve">
<style type="text/css">
	.st0{fill:#004C6C;}
	.st1{fill-rule:evenodd;clip-rule:evenodd;fill:#004C6C;}
</style>
<title>icon</title>
<g id="Icons">
	<g id="Robot_3">
		<rect x="31.7" y="36.4" class="st0" width="31.6" height="6.3"/>
		<path class="st1" d="M71,29.8c-5.4,0-9.7,4.4-9.8,9.7c0,5.4,4.4,9.7,9.7,9.7c5.4,0,9.7-4.4,9.7-9.7c0,0,0,0,0,0
			C80.7,34.2,76.4,29.8,71,29.8z M71,45.2c-3.1,0-5.7-2.5-5.7-5.7c0-3.1,2.5-5.7,5.7-5.7s5.7,2.5,5.7,5.7c0,0,0,0,0,0
			C76.7,42.7,74.1,45.2,71,45.2z"/>
		<path class="st1" d="M27.7,32.9c-3.7,0-6.6,3-6.6,6.7c0,3.7,3,6.6,6.6,6.6s6.6-3,6.6-6.6C34.3,35.9,31.4,32.9,27.7,32.9
			C27.7,32.9,27.7,32.9,27.7,32.9z M27.7,43.5c-2.2,0-4-1.8-4-4s1.8-4,4-4s4,1.8,4,4S29.9,43.5,27.7,43.5z"/>
		<path class="st0" d="M74.2,39.5c0,1.8-1.4,3.2-3.2,3.2c-1.8,0-3.2-1.4-3.2-3.2c0-1.8,1.4-3.2,3.2-3.2c0,0,0,0,0,0
			C72.8,36.3,74.2,37.8,74.2,39.5z"/>
		<path class="st0" d="M29.9,39.5c0,1.2-1,2.2-2.2,2.2s-2.2-1-2.2-2.2s1-2.2,2.2-2.2C28.9,37.3,29.9,38.3,29.9,39.5
			C29.9,39.5,29.9,39.5,29.9,39.5z"/>
		<path class="st0" d="M71,47.5l21.9,27.8c3.2-6.4,4.9-13.4,4.8-20.5v-0.1L78.9,39.5L71,47.5z"/>
		<path class="st0" d="M83.5,83.6H17.1c-0.8,0-1.5-0.7-1.5-1.5s0.7-1.5,1.5-1.5h66.4c0.8,0,1.5,0.7,1.5,1.5S84.4,83.6,83.5,83.6z"/>
		<rect x="24.3" y="66.3" class="st0" width="6.8" height="7.3"/>
		<rect x="55.4" y="71" class="st0" width="19" height="7.3"/>
		<rect x="38.6" y="71" class="st0" width="11.7" height="7.3"/>
		<path class="st1" d="M31.5,43.8h-7.3v7.3l-8.1,8.2l7.1,11.6L21,59.5l4.5-4.5c0.7,0.6,1.5,0.9,2.4,0.9c0.8,0,1.5-0.3,2.1-0.7
			l4.4,4.3l-2,11.5l7-11.7l-7.8-7.8L31.5,43.8z M29.9,52.8c0,0.1,0,0.1,0,0.2v0.2l-0.1,0.2l-0.1,0.2c0,0.1-0.1,0.2-0.1,0.2
			c0,0,0,0.1-0.1,0.1c-0.1,0.1-0.2,0.2-0.3,0.3c-0.8,0.8-2.2,0.8-3,0c0,0,0,0,0,0l0-0.1c-0.2-0.2-0.3-0.3-0.4-0.5v-0.1
			c-0.1-0.2-0.1-0.4-0.2-0.6c0,0,0-0.1,0-0.1c0-0.2,0-0.4,0-0.6c0,0,0-0.1,0-0.1c0.1-0.2,0.1-0.4,0.3-0.6c0.6-1,2-1.3,3-0.6
			c0.2,0.2,0.5,0.4,0.6,0.6l0.1,0.1c0,0.1,0.1,0.2,0.1,0.2l0,0.2c0,0.1,0.1,0.2,0.1,0.2v0.2c0,0.1,0,0.2,0,0.2L29.9,52.8z"/>
	</g>
</g>
</svg>
